<svg id="Layer_1" data-name="Layer 1" xmlns="http://www.w3.org/2000/svg" xmlns:xlink="http://www.w3.org/1999/xlink" viewBox="0 0 600 600"><defs><style>.cls-1{fill:#c1cff9;}.cls-2{fill:#fff;}.cls-3{fill:url(#linear-gradient);}.cls-4{fill:url(#linear-gradient-2);}.cls-5{fill:url(#linear-gradient-3);}.cls-6{fill:url(#linear-gradient-4);}.cls-7{fill:url(#linear-gradient-5);}.cls-8{fill:url(#linear-gradient-6);}.cls-9{fill:url(#linear-gradient-7);}.cls-10{fill:url(#linear-gradient-8);}.cls-11{fill:url(#linear-gradient-9);}.cls-12{fill:url(#linear-gradient-10);}.cls-13{fill:url(#linear-gradient-11);}.cls-14{fill:url(#linear-gradient-12);}.cls-15{fill:url(#linear-gradient-13);}.cls-16{fill:url(#linear-gradient-14);}.cls-17{fill:url(#linear-gradient-15);}.cls-18{fill:url(#linear-gradient-16);}.cls-19{fill:url(#linear-gradient-17);}.cls-20{fill:url(#linear-gradient-18);}.cls-21{fill:url(#linear-gradient-19);}.cls-22{fill:url(#linear-gradient-20);}.cls-23{fill:url(#linear-gradient-21);}.cls-24{fill:url(#linear-gradient-22);}.cls-25{fill:url(#linear-gradient-23);}.cls-26{fill:url(#linear-gradient-24);}.cls-27{fill:url(#linear-gradient-25);}.cls-28{fill:url(#linear-gradient-26);}.cls-29{fill:url(#linear-gradient-27);}.cls-30{fill:url(#linear-gradient-28);}.cls-31{fill:url(#linear-gradient-29);}.cls-32{fill:url(#linear-gradient-30);}.cls-33{fill:url(#linear-gradient-31);}.cls-34{fill:url(#linear-gradient-32);}.cls-35{fill:url(#linear-gradient-33);}.cls-36{fill:url(#linear-gradient-34);}.cls-37{fill:url(#linear-gradient-35);}.cls-38{fill:url(#linear-gradient-36);}.cls-39{fill:url(#linear-gradient-37);}.cls-40{fill:url(#linear-gradient-38);}.cls-41{fill:url(#linear-gradient-39);}.cls-42{fill:url(#linear-gradient-40);}.cls-43{fill:url(#linear-gradient-41);}.cls-44{fill:url(#linear-gradient-42);}.cls-45{fill:url(#linear-gradient-43);}.cls-46{fill:url(#linear-gradient-44);}.cls-47{fill:url(#linear-gradient-45);}.cls-48{fill:url(#linear-gradient-46);}.cls-49{fill:url(#linear-gradient-47);}</style><linearGradient id="linear-gradient" x1="54.54" y1="203.46" x2="97.83" y2="530.09" gradientUnits="userSpaceOnUse"><stop offset="0" stop-color="#d5dffa"/><stop offset="1" stop-color="#fff"/></linearGradient><linearGradient id="linear-gradient-2" x1="428.05" y1="153.96" x2="471.33" y2="480.59" xlink:href="#linear-gradient"/><linearGradient id="linear-gradient-3" x1="477.82" y1="147.37" x2="521.11" y2="473.99" xlink:href="#linear-gradient"/><linearGradient id="linear-gradient-4" x1="470.82" y1="148.29" x2="514.11" y2="474.92" xlink:href="#linear-gradient"/><linearGradient id="linear-gradient-5" x1="249.05" y1="177.69" x2="292.34" y2="504.31" xlink:href="#linear-gradient"/><linearGradient id="linear-gradient-6" x1="6378.09" y1="-418.77" x2="6578.24" y2="-213.97" gradientTransform="matrix(-0.98, 0.18, 0.18, 0.98, 6648.93, -535.09)" gradientUnits="userSpaceOnUse"><stop offset="0" stop-color="#fdcdcd"/><stop offset="1" stop-color="#ff8686"/></linearGradient><linearGradient id="linear-gradient-7" x1="6460.87" y1="-338.94" x2="6458.02" y2="-420.85" gradientTransform="matrix(-0.98, 0.18, 0.18, 0.98, 6648.93, -535.09)" gradientUnits="userSpaceOnUse"><stop offset="0" stop-color="#fff"/><stop offset="1" stop-color="#d5dffa"/></linearGradient><linearGradient id="linear-gradient-8" x1="7407.88" y1="289.7" x2="7316.63" y2="198.46" gradientTransform="matrix(-1, 0, 0, 1, 7528.02, 0)" gradientUnits="userSpaceOnUse"><stop offset="0" stop-color="#a1c5ff"/><stop offset="1" stop-color="#2d4bdf"/></linearGradient><linearGradient id="linear-gradient-9" x1="7300.57" y1="327.94" x2="7466.05" y2="493.42" gradientTransform="matrix(-1, 0, 0, 1, 7528.02, 0)" gradientUnits="userSpaceOnUse"><stop offset="0" stop-color="#070256"/><stop offset="1" stop-color="#4222d0"/></linearGradient><linearGradient id="linear-gradient-10" x1="7280.12" y1="348.39" x2="7445.6" y2="513.87" xlink:href="#linear-gradient-9"/><linearGradient id="linear-gradient-11" x1="7385.32" y1="565.69" x2="7385.32" y2="604.52" gradientTransform="matrix(-1, 0, 0, 1, 7528.02, 0)" gradientUnits="userSpaceOnUse"><stop offset="0" stop-color="#070256"/><stop offset="1" stop-color="#3a18ce"/></linearGradient><linearGradient id="linear-gradient-12" x1="7320.79" y1="565.69" x2="7320.79" y2="604.52" xlink:href="#linear-gradient-11"/><linearGradient id="linear-gradient-13" x1="7428.51" y1="359.77" x2="7313.22" y2="244.48" gradientTransform="matrix(-1, 0, 0, 1, 7528.02, 0)" xlink:href="#linear-gradient-7"/><linearGradient id="linear-gradient-14" x1="7424.14" y1="383.25" x2="7251.31" y2="210.42" gradientTransform="matrix(-1, 0, 0, 1, 7528.02, 0)" xlink:href="#linear-gradient-7"/><linearGradient id="linear-gradient-15" x1="7384.99" y1="177.21" x2="7298.6" y2="263.6" gradientTransform="matrix(-1, 0, 0, 1, 7528.02, 0)" xlink:href="#linear-gradient-7"/><linearGradient id="linear-gradient-16" x1="7326.85" y1="167.91" x2="7354.53" y2="268.96" gradientTransform="matrix(-1, 0, 0, 1, 7528.02, 0)" xlink:href="#linear-gradient-7"/><linearGradient id="linear-gradient-17" x1="7340.77" y1="186.1" x2="7428.32" y2="299.13" xlink:href="#linear-gradient-11"/><linearGradient id="linear-gradient-18" x1="7335.82" y1="189.93" x2="7423.38" y2="302.96" xlink:href="#linear-gradient-11"/><linearGradient id="linear-gradient-19" x1="7326.18" y1="278.77" x2="7386.12" y2="192.72" xlink:href="#linear-gradient-8"/><linearGradient id="linear-gradient-20" x1="7316.4" y1="271.96" x2="7376.34" y2="185.9" xlink:href="#linear-gradient-8"/><linearGradient id="linear-gradient-21" x1="7309.11" y1="246.15" x2="7353.64" y2="178.29" xlink:href="#linear-gradient-8"/><linearGradient id="linear-gradient-22" x1="7322.5" y1="200.25" x2="7410.05" y2="313.28" xlink:href="#linear-gradient-11"/><linearGradient id="linear-gradient-23" x1="-2045.02" y1="-992.07" x2="-2035.71" y2="-1016.58" gradientTransform="translate(2437.18 446.84) rotate(-18.82)" xlink:href="#linear-gradient-9"/><linearGradient id="linear-gradient-24" x1="7411.57" y1="237.53" x2="7303.28" y2="129.24" gradientTransform="matrix(-1, 0, 0, 1, 7528.02, 0)" xlink:href="#linear-gradient-6"/><linearGradient id="linear-gradient-25" x1="7321.24" y1="129.24" x2="7468.52" y2="279.95" gradientTransform="matrix(-1, 0, 0, 1, 7528.02, 0)" xlink:href="#linear-gradient-6"/><linearGradient id="linear-gradient-26" x1="7338.12" y1="211.48" x2="7359.1" y2="156.25" xlink:href="#linear-gradient-8"/><linearGradient id="linear-gradient-27" x1="7349.28" y1="215.73" x2="7370.26" y2="160.5" xlink:href="#linear-gradient-8"/><linearGradient id="linear-gradient-28" x1="-2403.21" y1="-163.63" x2="-2371.61" y2="-246.81" gradientTransform="matrix(0.87, -0.3, 0.25, 0.75, 2309.92, -399)" xlink:href="#linear-gradient-9"/><linearGradient id="linear-gradient-29" x1="7320.83" y1="128.8" x2="7468.11" y2="279.51" gradientTransform="matrix(-1, 0, 0, 1, 7528.02, 0)" xlink:href="#linear-gradient-6"/><linearGradient id="linear-gradient-30" x1="2348.36" y1="-957.49" x2="2360.22" y2="-957.49" gradientTransform="matrix(0.92, -0.4, 0.4, 0.92, -1528.82, 2034.09)" gradientUnits="userSpaceOnUse"><stop offset="0" stop-color="#fff"/><stop offset="1" stop-color="#aac0fa"/></linearGradient><linearGradient id="linear-gradient-31" x1="207.56" y1="226.48" x2="225.88" y2="226.48" gradientTransform="matrix(1, 0, 0, 1, 0, 0)" xlink:href="#linear-gradient-9"/><linearGradient id="linear-gradient-32" x1="6194.21" y1="-516.53" x2="6394.37" y2="-311.72" gradientTransform="matrix(-0.97, 0.22, 0.22, 0.97, 6404.54, -697.9)" xlink:href="#linear-gradient-6"/><linearGradient id="linear-gradient-33" x1="6276.99" y1="-436.69" x2="6274.14" y2="-518.61" gradientTransform="matrix(-0.97, 0.22, 0.22, 0.97, 6404.54, -697.9)" xlink:href="#linear-gradient-7"/><linearGradient id="linear-gradient-34" x1="2215.53" y1="-896" x2="2383.68" y2="-957.74" gradientTransform="matrix(0.92, -0.4, 0.4, 0.92, -1528.82, 2034.09)" xlink:href="#linear-gradient-8"/><linearGradient id="linear-gradient-35" x1="412.04" y1="-562.38" x2="283.43" y2="-334.45" gradientTransform="matrix(-0.98, 0.18, 0.18, 0.98, 740.7, 653.37)" xlink:href="#linear-gradient-6"/><linearGradient id="linear-gradient-36" x1="401.11" y1="-587.24" x2="283.13" y2="-444.28" gradientTransform="matrix(-0.98, 0.18, 0.18, 0.98, 740.7, 653.37)" gradientUnits="userSpaceOnUse"><stop offset="0" stop-color="#eb3b61"/><stop offset="1" stop-color="#7d0754"/></linearGradient><linearGradient id="linear-gradient-37" x1="566.06" y1="263.16" x2="462.71" y2="509.47" gradientTransform="matrix(-1, 0, 0, 1, 899.63, 0)" xlink:href="#linear-gradient-9"/><linearGradient id="linear-gradient-38" x1="601.2" y1="277.9" x2="497.86" y2="524.21" gradientTransform="matrix(-1, 0, 0, 1, 899.63, 0)" xlink:href="#linear-gradient-9"/><linearGradient id="linear-gradient-39" x1="503.29" y1="553.43" x2="505.01" y2="506.92" gradientTransform="matrix(-1, 0, 0, 1, 899.63, 0)" xlink:href="#linear-gradient-11"/><linearGradient id="linear-gradient-40" x1="568.1" y1="555.83" x2="569.83" y2="509.32" gradientTransform="matrix(-1, 0, 0, 1, 899.63, 0)" xlink:href="#linear-gradient-11"/><linearGradient id="linear-gradient-41" x1="482.3" y1="80.97" x2="557.52" y2="329" gradientTransform="matrix(-1, 0, 0, 1, 899.63, 0)" gradientUnits="userSpaceOnUse"><stop offset="0" stop-color="#eb3b61"/><stop offset="0.3" stop-color="#ca2b5d"/><stop offset="0.62" stop-color="#b7225b"/><stop offset="1" stop-color="#7d0754"/></linearGradient><linearGradient id="linear-gradient-42" x1="472.86" y1="326.69" x2="576.79" y2="106.8" gradientTransform="matrix(-1, 0, 0, 1, 899.63, 0)" xlink:href="#linear-gradient-6"/><linearGradient id="linear-gradient-43" x1="575.59" y1="103.44" x2="446.98" y2="331.38" gradientTransform="matrix(-1, 0, 0, 1, 899.63, 0)" xlink:href="#linear-gradient-6"/><linearGradient id="linear-gradient-44" x1="810.41" y1="203.76" x2="681.79" y2="431.71" gradientTransform="matrix(-1, 0.06, 0.06, 1, 1095.15, -125.72)" xlink:href="#linear-gradient-6"/><linearGradient id="linear-gradient-45" x1="660.62" y1="149.39" x2="614.4" y2="343.45" gradientTransform="matrix(-1, 0.03, 0.03, 1, 1011.54, -70.77)" xlink:href="#linear-gradient-41"/><linearGradient id="linear-gradient-46" x1="-1387.11" y1="-1903.67" x2="-1372.88" y2="-2287.93" gradientTransform="matrix(-0.81, -0.85, -0.73, 0.69, -2544.46, 694.85)" xlink:href="#linear-gradient-11"/><linearGradient id="linear-gradient-47" x1="572.92" y1="101.94" x2="444.31" y2="329.87" gradientTransform="matrix(-1, 0, 0, 1, 899.63, 0)" xlink:href="#linear-gradient-6"/></defs><path class="cls-1" d="M98.06,169.51a351.65,351.65,0,0,1,41.61-49c68.7-67,156.92-56.66,232.16-6a344.25,344.25,0,0,1,31.83,24.39,382.22,382.22,0,0,1,28.66,27.43Q445,180,456.21,194.85c39.12,51.68,73.81,119.36,72.08,186-1.41,54.3-37.51,97.14-93.77,95.5-27.07-.78-53-10.67-77.48-22.38C310.49,431.61,272,408.76,218.33,415c-31.83,3.7-60.77,18.86-92.63,21.41-21.07,1.68-43.53-2.91-59.32-17C27.13,384.51,34.7,311.15,49,267A367.47,367.47,0,0,1,98.06,169.51Z"/><path class="cls-2" d="M295.37,99.72h-4.63V95.09a.87.87,0,0,0-1.74,0v4.63h-4.63a.87.87,0,1,0,0,1.73H289v4.63a.87.87,0,0,0,.87.87.85.85,0,0,0,.61-.25.88.88,0,0,0,.26-.62v-4.63h4.63a.85.85,0,0,0,.61-.25.85.85,0,0,0,.26-.61A.87.87,0,0,0,295.37,99.72Z"/><path class="cls-2" d="M264,181.71h-4.63v-4.63a.87.87,0,0,0-1.74,0v4.63H253a.87.87,0,1,0,0,1.74h4.63v4.63a.86.86,0,0,0,.87.86.85.85,0,0,0,.61-.25.85.85,0,0,0,.26-.61v-4.63H264a.85.85,0,0,0,.61-.26.85.85,0,0,0,.25-.61A.86.86,0,0,0,264,181.71Z"/><path class="cls-2" d="M303,152.72h-4.63v-4.63a.87.87,0,0,0-1.74,0v4.63H292a.87.87,0,1,0,0,1.73h4.63v4.63a.87.87,0,0,0,.87.87.83.83,0,0,0,.61-.25.88.88,0,0,0,.26-.62v-4.63H303a.83.83,0,0,0,.61-.25.85.85,0,0,0,.26-.61A.87.87,0,0,0,303,152.72Z"/><path class="cls-2" d="M244.18,130.66h-4.63V126a.87.87,0,0,0-.87-.87.86.86,0,0,0-.86.86v4.63h-4.63a.87.87,0,0,0,0,1.74h4.63V137a.86.86,0,0,0,.86.87.91.91,0,0,0,.62-.25.87.87,0,0,0,.25-.62V132.4h4.63a.87.87,0,0,0,.62-.25.91.91,0,0,0,.25-.62A.87.87,0,0,0,244.18,130.66Z"/><path class="cls-2" d="M264,51.31h-4.63V46.68a.87.87,0,0,0-1.74,0v4.63H253a.87.87,0,0,0,0,1.74h4.63v4.63a.86.86,0,0,0,.87.86.85.85,0,0,0,.61-.25.85.85,0,0,0,.26-.61V53.05H264a.85.85,0,0,0,.61-.26.85.85,0,0,0,.25-.61A.86.86,0,0,0,264,51.31Z"/><path class="cls-3" d="M29.41,288.68l-.07-.05a.25.25,0,0,1-.14-.35l.11-.22.23.09-.1.24.13-.22.09.05a219.75,219.75,0,0,1,19.86,12.69A235.43,235.43,0,0,1,87,333.62c11.74,12,29.21,35.29,41.89,58.77-.27-1.83-1.91-12.41.5-20,2.54-8.27-.8-24.07-15.91-50.64-7.57-13.25-20-25.19-33-33.12s-26.46-12-34.72-10.9c-16.52,2-35.3,2.19-35.34,2.23s7.39,15.93,9.94,29.2c1.23,6.67,11.17,19.53,23.57,32,12.56,12.42,27.57,24.44,42.61,28.73,25.61,7.39,38,18.62,41.38,21.89-12.61-23.14-29.76-46-41.33-57.77C62,307,32.67,290.48,29.41,288.68Z"/><path class="cls-2" d="M128.87,392.39c0,.18,0,.28,0,.28a7.63,7.63,0,0,1-1-.92c1.35,2.48,2.65,5,3.89,7.44a245,245,0,0,1,14.66,34l.51-.11A244.59,244.59,0,0,0,132.28,399Q130.64,395.68,128.87,392.39Z"/><path class="cls-2" d="M128.91,392.67s0-.1,0-.28c-12.68-23.48-30.15-46.8-41.89-58.77a235.43,235.43,0,0,0-37.46-32.71,219.75,219.75,0,0,0-19.86-12.69l-.09-.05-.13.22.1-.24-.23-.09-.11.22a.25.25,0,0,0,.14.35l.1-.24-.1.24.07.05C32.67,290.48,62,307,86.6,334c11.57,11.8,28.72,34.63,41.33,57.77A7.63,7.63,0,0,0,128.91,392.67Z"/><path class="cls-4" d="M473.34,324.11A149.49,149.49,0,0,0,485,312.47l.4.33a148.72,148.72,0,0,1-11.69,11.69c-8.23,7.7-18.46,17.29-27.36,29.67-13.41,18.65-22,61.56-23.15,85.44,1.38-6.8,7-32.11,15.51-39.16,9.88-8.18,33.59-40.93,44.8-58.08s6.37-44,6.37-44-3.48,8.3-10.91,11.91-32.1,19-44.31,48.06c-9.81,23.33-11.47,62.68-11.74,77.27,1.81-24.48,10.25-64,23-81.77C454.84,341.43,465.1,331.83,473.34,324.11Z"/><path class="cls-2" d="M423.19,439.6c-.22,1.08-.33,1.69-.33,1.69s0-2.09.05-5.67c-.15,2-.25,3.89-.31,5.66-.4,12-.57,24.73-.65,34.1l.52.06c.08-9.36.25-22.12.65-34.14C423.14,440.74,423.16,440.17,423.19,439.6Z"/><path class="cls-2" d="M422.86,441.29s.11-.61.33-1.69c1.12-23.88,9.74-66.79,23.15-85.44,8.9-12.38,19.13-22,27.36-29.67a148.72,148.72,0,0,0,11.69-11.69l-.4-.33a149.49,149.49,0,0,1-11.65,11.64c-8.24,7.72-18.5,17.32-27.42,29.74-12.76,17.74-21.2,57.29-23,81.77C422.84,439.2,422.86,441.29,422.86,441.29Z"/><path class="cls-5" d="M589.57,338.73s-7.67-3.34-22.45,4.29-44.68,5.73-56.45,10-20.36,13.84-36.34,20-47.47,62.11-41,89a103.86,103.86,0,0,0,4.37,14.18q3,0,5.94-.21a13.47,13.47,0,0,0,2.61-.17,79,79,0,0,0,9.06-1.17c2.09-5.51,4.51-11.32,7.38-17.35A213,213,0,0,1,489.3,415c12.26-15.27,30.42-30.49,43.5-40.58C547,363.48,558.39,356.07,558.5,356l.14.22c4.88-4,9.23-6.9,12.8-8.41C587.18,341.12,589.57,338.73,589.57,338.73Z"/><path class="cls-6" d="M489.71,415.32a212.86,212.86,0,0,0-33.83,59.33c1.62-.31,3.25-.65,4.89-1,10.48-16,26.21-39.19,40.24-56.17,17.62-21.33,39.33-45.83,55.77-59.71-3.89,2.6-13,8.83-23.67,17.06C520.06,384.89,501.93,400.09,489.71,415.32Z"/><path class="cls-2" d="M558.78,356.43l-.14-.22-1.86,1.55C558,356.91,558.76,356.45,558.78,356.43Z"/><path class="cls-2" d="M532.8,374.41c-13.08,10.09-31.24,25.31-43.5,40.58a213,213,0,0,0-26.65,42.42c-2.87,6-5.29,11.84-7.38,17.35l.61-.11a212.86,212.86,0,0,1,33.83-59.33c12.22-15.23,30.35-30.43,43.4-40.5,10.68-8.23,19.78-14.46,23.67-17.06l1.86-1.55-.14-.22C558.39,356.07,547,363.48,532.8,374.41Z"/><path class="cls-7" d="M254.21,376.71c2.16-8.88,10.71-21,17.5-29.65,7.35-9.34,14.28-16.68,14.35-16.76l.38.36c-.27.29-27.62,29.34-31.73,46.17-4.21,17.28-2.42,24.5-.74,30.77,1.55-3.31,13.35-28.26,23.92-45.28,11.33-18.24,23.76-50.08,23.76-50.08s-7.54,8.46-15.37,12.39-29.72,12.05-41,41.49c-10.39,27.17,5.63,39.83,8.17,41.62C251.86,401.71,250,394.11,254.21,376.71Z"/><path class="cls-2" d="M254,407.6l-.17.36-.33-.22.08.29a37.93,37.93,0,0,0,3.27,7.38l.64.08a39.79,39.79,0,0,1-3.41-7.59C254,407.8,254,407.7,254,407.6Z"/><path class="cls-2" d="M254,407.6c-1.68-6.27-3.47-13.49.74-30.77,4.11-16.83,31.46-45.88,31.73-46.17l-.38-.36c-.07.08-7,7.42-14.35,16.76-6.79,8.62-15.34,20.77-17.5,29.65-4.25,17.4-2.35,25-.74,31l.33.22Z"/><path class="cls-8" d="M262.09,230.78l.56-.36c1.6-1.09,3.93-2.93,5.64-1.1,1.37,1.47.32,3.71-.55,4.91a33.84,33.84,0,0,1-4.56,4.87L258.4,233C259.63,232.25,260.87,231.52,262.09,230.78Z"/><path class="cls-9" d="M191.31,199.72C201.59,199.85,204,217.83,206,225c2.89,10.34,6.41,20,12.29,28.9,14.17-5.64,27.18-13.91,40.25-21.61l6.76,8.6-1.56,1.43c-6.46,6-14.76,11.3-22,16.33a129.65,129.65,0,0,1-13.88,8.52c-4.19,2.2-10.63,4.78-15.5,4a11.07,11.07,0,0,1-5.26-2.73,72.83,72.83,0,0,1-13.8-14.9,70,70,0,0,1-10.49-26.33C181.68,221.24,180.59,199.58,191.31,199.72Z"/><path class="cls-10" d="M161.55,189.34c.9,1,2.91,3.14,10.66,3.79,5.14.43,10.81.3,12-.86,38,15.79,17,84.62,17,84.62L147,279.4S113.52,194.76,161.55,189.34Z"/><path class="cls-11" d="M146.82,278.57c-.12,5.62-.31,15.4-.33,21.16-.25,9.53-.48,19-.7,28.46-.68,30.61.64,47.6.45,78.56a15.57,15.57,0,0,1-1.58,7.61q-2.74,6.92-4.91,13.9T136,442.33c-8,33.77-8,67.76-8.17,101.75l13,.47c1.54-7.71,4.35-21.13,7.62-33.5,1.81-6.8,3.64-13.2,5.24-17.82,4.76-13.77,19-75.85,23.24-94.5,2.28-11,4.27-22.3,5.69-33a234.91,234.91,0,0,0,2.28-29.3c.05-26.28.22-48.58,0-57.9Z"/><path class="cls-12" d="M211.09,334.64c-3.27-23.37-7.48-44.87-9.79-56.07H164.78c.42,3.42,1.95,15.83,2.94,23q1.65,14.22,3.31,28.33c3.64,30.47,7.35,47.23,11.51,78,.1.71.18,1.44.23,2.18l-.18,0a11.18,11.18,0,0,1-.51,3.57q-1.32,7.35-2,14.71t-.89,14.7c-1.07,35.14,5.9,69.26,12.6,103.42l13.57-2.55c-.05-8-.6-20.84.12-33.77.4-7.11.91-13.81,1.55-18.69,1.37-10.52,2.51-47.15,3.19-74,.74-8.47,1.35-15.68,1.74-20.28.72-11.14,1.1-22.52,1-33.25A233.54,233.54,0,0,0,211.09,334.64Z"/><polygon class="cls-13" points="127.77 543.89 125.37 554.19 160.03 554.19 140.81 543.89 127.77 543.89"/><polygon class="cls-14" points="192.3 543.89 189.9 554.19 224.56 554.19 205.34 543.89 192.3 543.89"/><path class="cls-15" d="M135.65,224.31c0-.05,0-.1,0-.16.32-16.91,6.08-31.82,24.42-34.61,2.09,1.18,6.59,4.06,13.2,10.23,7.59,7.07,15,22.81,17.55,28.67q.36,2.79.65,5.79c3.31,35.58,7.76,114.06,9.3,141.93H138.39S133.55,255.28,135.65,224.31Z"/><path class="cls-16" d="M190.2,208.33c-.91-5.08-3.26-12.88-3.95-15.14,11.46,5.65,17,16.46,19.37,28.49h0c.21,1.1.39,2.2.55,3.32,4.78,31.4,12.5,151.16,12.5,151.16H200.78c-1.54-27.87-6-106.35-9.3-141.93q-.27-2.86-.61-5.53C190.94,224.88,191.08,213.3,190.2,208.33Z"/><path class="cls-17" d="M190.93,229.23s-8.23-20.69-17.65-29.46-13.36-10.21-13.36-10.21l-5.26.57,8.13,14.56,8.14,1.71.43,6Z"/><path class="cls-18" d="M186.27,193.2s2.85,9.14,3.93,15.13.64,21,.64,21l6.42-18-2.57-4.93,2.57-3-5.78-7.92Z"/><path class="cls-19" d="M162.69,210.88c-.32-.53-7.74-13.15-3.89-20.9,1.59-3.18,4.82-5.07,9.63-5.6,8.11-.89,15.44,2.94,21.2,11.09a48.21,48.21,0,0,1,6.27,12.6l-1.21.36a47.36,47.36,0,0,0-6.11-12.26c-5.55-7.84-12.29-11.39-20-10.53-4.35.47-7.26,2.12-8.64,4.9-3.55,7.14,3.77,19.57,3.84,19.7Z"/><path class="cls-20" d="M165.68,231.49l-.81-1a26.36,26.36,0,0,0,5.5-6.8c-3.23-.63-6.52-1.94-8.71-4.53a6.52,6.52,0,0,1-1.4-6.76,5.63,5.63,0,0,1,4.69-3.51c2.48-.23,4.92,1.22,6.71,4s2.06,6.24.59,9.83a34.72,34.72,0,0,0,8.15,0l.17,1.25a34.77,34.77,0,0,1-8.87-.06c-.28.54-.59,1.09-.94,1.64A27.75,27.75,0,0,1,165.68,231.49Zm-.18-21.32a2.16,2.16,0,0,0-.44,0,4.38,4.38,0,0,0-3.64,2.73,5.29,5.29,0,0,0,1.2,5.47c2,2.4,5.21,3.59,8.33,4.15,1.21-2.78,1.59-6-.35-8.95C169.17,211.38,167.37,210.18,165.5,210.17Z"/><path class="cls-21" d="M165.27,231.89a.9.9,0,0,1-.67-.31.88.88,0,0,1,.1-1.24,24.71,24.71,0,0,0,3.65-3.92.89.89,0,0,1,1.24-.16.88.88,0,0,1,.16,1.23,26.78,26.78,0,0,1-3.9,4.19A.92.92,0,0,1,165.27,231.89Z"/><path class="cls-22" d="M176.33,224.51h-1.09a.89.89,0,0,1,0-1.77h0a31.34,31.34,0,0,0,5.08-.21.88.88,0,1,1,.23,1.75A31.74,31.74,0,0,1,176.33,224.51Z"/><circle class="cls-23" cx="196.47" cy="211.95" r="3.59"/><path class="cls-24" d="M196.45,216.17a4.22,4.22,0,1,1,4.23-4.2A4.23,4.23,0,0,1,196.45,216.17Zm0-7.18a3,3,0,1,0,3,3A3,3,0,0,0,196.48,209Z"/><path class="cls-25" d="M181.72,146.88s5.06.84,6,5.66-1.59,9.34-7.3,7.62S174.28,148.68,181.72,146.88Z"/><path class="cls-26" d="M184.5,192.39l-.28-.12c-1.2,1.16-6.87,1.29-12,.86-7.63-.64-9.69-2.75-10.62-3.74a39.45,39.45,0,0,0,2.75-8.58c1.3-6.43-.94-13.15-.94-13.15l13.78,2a47,47,0,0,0,1.6,12.22A24.63,24.63,0,0,0,184.5,192.39Z"/><path class="cls-27" d="M166,143.5c-12,2.72-14.79,16.59-8.89,23.41,5.43,6.28,9,2.69,12,7.8,2.35,3.94,10.88,8.51,15.12,7.79s6.27-10.7,2.91-23.68S172.62,142,166,143.5Z"/><polygon class="cls-28" points="183.52 189.92 186.28 193.22 184.63 196.98 179.71 193.34 183.52 189.92"/><polygon class="cls-29" points="162.56 185.64 159.8 190.78 175.77 198.48 179.71 193.34 162.56 185.64"/><path class="cls-30" d="M162.15,143.89c-10.8,4.87-10.4,18.32-6.85,23.77a25.37,25.37,0,0,0,9.33,8.17s-.85-5.5,2.26-8.29,1.67-11,6.26-13.43,9.09,1.83,13-2.68-3-15.3-12.19-12.46S164.79,142.7,162.15,143.89Z"/><path class="cls-31" d="M167.6,167s-4.69-1.68-3.26,2.21,5.62,3.16,5.62,3.16Z"/><polygon class="cls-32" points="253.67 223.07 244.1 220.17 246.37 214.76 255.94 217.66 253.67 223.07"/><path class="cls-33" d="M224.6,236.19a1.26,1.26,0,0,0,.87-.34,1.29,1.29,0,0,0,.07-1.82l-15.75-16.85a1.29,1.29,0,0,0-1.88,1.76l15.74,16.85A1.3,1.3,0,0,0,224.6,236.19Z"/><path class="cls-34" d="M218.2,229.31q.26-.17.54-.39c1.54-1.16,3.78-3.1,5.57-1.36,1.44,1.41.5,3.69-.31,4.94a33.08,33.08,0,0,1-4.33,5.07l-5.06-5.89C215.81,230.89,217,230.11,218.2,229.31Z"/><path class="cls-35" d="M146,201.59c10.27-.35,13.47,17.5,15.81,24.58,3.37,10.2,7.34,19.69,13.63,28.3,13.89-6.3,26.49-15.16,39.19-23.46l7.15,8.27-1.49,1.5c-6.17,6.3-14.21,12-21.2,17.33a130.78,130.78,0,0,1-13.46,9.17c-4.09,2.39-10.4,5.27-15.31,4.72a11.23,11.23,0,0,1-5.38-2.49,72.64,72.64,0,0,1-14.48-14.24,70.09,70.09,0,0,1-11.71-25.8C137.43,223.54,135.32,202,146,201.59Z"/><polygon class="cls-36" points="247.93 272.29 210.93 261.08 231.18 212.81 268.18 224.01 247.93 272.29"/><path class="cls-37" d="M261.43,292.77l.7-.21c19.09-6.23,37.85-13.38,55.69-22.7a8.8,8.8,0,0,0,3.92-4.1c5.12-11,6.91-22.35,7.77-34.35.53-7.48-.76-25.67,9.34-27.87,10.53-2.29,13.82,19.28,13.95,25.39.43,19.48-7,40-23.12,51.77-8.87,6.46-19.92,9.32-30.39,12.05a231.4,231.4,0,0,1-28.81,5.68,55.13,55.13,0,0,1-9.68.78c-1.63-.09-4.24-.7-4.44-2.72C256.12,294,259.36,293.32,261.43,292.77Z"/><path class="cls-38" d="M327.36,231.26c.08-1.09.11-2.42.16-4,.12-4.46.28-10,1.53-14.9,1.61-6.27,4.75-9.95,9.34-10.95l.36-.07a8.8,8.8,0,0,1,7.33,2c7,5.74,8.79,21.6,8.87,25.53a73.45,73.45,0,0,1-4,25.72l-25.68-6.85A131.07,131.07,0,0,0,327.36,231.26Z"/><path class="cls-39" d="M392.19,276.3c.13,5.65.32,15.49.34,21.28q.38,14.37.7,28.63c.68,30.79-.65,47.88-.45,79a15.78,15.78,0,0,0,1.58,7.67q2.77,6.93,4.94,14c1.46,4.69,2.72,9.41,3.82,14.15,8.08,34,8,68.15,8.21,102.33l-13.12.48c-1.54-7.76-4.37-21.26-7.67-33.7-1.81-6.84-3.65-13.28-5.26-17.92-4.79-13.85-19.12-76.29-23.38-95.05-2.29-11.07-4.29-22.42-5.72-33.15a233.93,233.93,0,0,1-2.29-29.47c-.05-26.42-.22-48.85,0-58.23Z"/><path class="cls-40" d="M327.55,332.69c3.29-23.5,7.52-45.12,9.86-56.39h36.73c-.43,3.44-2,15.92-3,23.13q-1.65,14.31-3.33,28.5c-3.66,30.64-7.39,47.49-11.57,78.43-.1.72-.18,1.45-.23,2.19l.18,0a11.06,11.06,0,0,0,.51,3.59c.89,4.93,1.56,9.86,2,14.79s.77,9.86.89,14.79c1.08,35.34-5.94,69.66-12.67,104l-13.65-2.57c.05-8,.6-21-.12-34-.4-7.14-.92-13.89-1.56-18.79-1.38-10.59-2.53-47.42-3.21-74.39-.75-8.52-1.36-15.77-1.75-20.39-.72-11.21-1.11-22.66-1-33.44A234.54,234.54,0,0,1,327.55,332.69Z"/><polygon class="cls-41" points="411.36 543.15 413.77 553.51 378.9 553.51 398.24 543.15 411.36 543.15"/><polygon class="cls-42" points="346.45 543.15 348.87 553.51 314 553.51 333.34 543.15 346.45 543.15"/><path class="cls-43" d="M328.58,243.43h0c-3.3-24.28.15-53.52,34.31-57.39,32.18-3.65,37.29,24.85,35.6,50.5h0c-.07,1.07-.15,2.14-.25,3.21-.88,16.16.6,59.43.6,59.43s-33.15,6.25-48.87,3.45-22.39-5.17-22.39-5.17S330,261.31,328.58,243.43Z"/><path class="cls-44" d="M365.49,163.53a41.17,41.17,0,0,0,1.45,12.71,23.48,23.48,0,0,0,6.78,10.37s-6.31,7.45-15.6,8.45-11.68-4.82-11.68-4.82a24.53,24.53,0,0,0,4.88-11.12,47.47,47.47,0,0,0,.53-12.39Z"/><path class="cls-45" d="M360.75,139.54c12.26,1.68,16.27,15.34,11,22.68-4.89,6.77-8.76,3.49-11.37,8.87-2,4.16-10.15,9.48-14.47,9.13s-7.22-10.17-5-23.47S354,138.62,360.75,139.54Z"/><path class="cls-46" d="M373.27,193.5c9.56-10.08,31.77,11.33,36.82,52.28s-9.42,89-12.38,94.89-8.24,3.83-6.42-3.53,3.22-53.95-1-80.77S362.82,204.52,373.27,193.5Z"/><path class="cls-47" d="M375.59,224.69c-6.16-13.91-11.49-25.92-4.28-33.16a9.72,9.72,0,0,1,6.7-3c6.46-.21,13.69,5.48,19.83,15.61,4.75,7.85,8.43,17.76,10.7,28.7l-25.11,11.48A192.14,192.14,0,0,0,375.59,224.69Z"/><path class="cls-48" d="M360.21,137.62c-.63-.06-1.28-1.49-1.64-2-4.45-5.9-13.8-6.71-18.25-.37-3,4.3-2.78,10.49,2.61,12.6,1.43.55,2.94.85,4.4,1.31,5.55,1.76,17.93,1,14.91,9.83-1.3,3.82,1.51,11.41,3.88,12.49a22.74,22.74,0,0,1,2.32-2c3.07-2.74,5.64-5.5,7-9.46,2.63-7.54.54-16.83-7.1-20.43a19.35,19.35,0,0,0-6.64-1.78C360.75,137.68,360.21,137.62,360.21,137.62Z"/><path class="cls-49" d="M362.08,163.2s4.56-2.1,3.46,1.93-5.36,3.65-5.36,3.65Z"/></svg>