<svg id="Layer_1" data-name="Layer 1" xmlns="http://www.w3.org/2000/svg" xmlns:xlink="http://www.w3.org/1999/xlink" viewBox="0 0 600 600"><defs><style>.cls-1{fill:none;}.cls-2{fill:url(#linear-gradient);}.cls-3{fill:#fff;}.cls-4{clip-path:url(#clip-path);}.cls-5{fill:#1d0e83;}.cls-6{fill:#1d0e84;}.cls-7{fill:#1e0e85;}.cls-8{fill:#1e0f86;}.cls-9{fill:#1f0f87;}.cls-10{fill:#1f0f88;}.cls-11{fill:#200f89;}.cls-12{fill:#20108a;}.cls-13{fill:#21108b;}.cls-14{fill:#21108c;}.cls-15{fill:#22118d;}.cls-16{fill:#22118e;}.cls-17{fill:#23118f;}.cls-18{fill:#231190;}.cls-19{fill:#241291;}.cls-20{fill:#241292;}.cls-21{fill:#251294;}.cls-22{fill:#251295;}.cls-23{fill:#261396;}.cls-24{fill:#261397;}.cls-25{fill:#271398;}.cls-26{fill:#271399;}.cls-27{fill:#28149a;}.cls-28{fill:#28149b;}.cls-29{fill:#29149c;}.cls-30{fill:#29159d;}.cls-31{fill:#2a159e;}.cls-32{fill:#2a159f;}.cls-33{fill:#2b15a0;}.cls-34{fill:#2b16a1;}.cls-35{fill:#2c16a2;}.cls-36{fill:#2c16a3;}.cls-37{fill:#2d16a4;}.cls-38{fill:#2d17a5;}.cls-39{fill:#2e17a6;}.cls-40{fill:#2e17a7;}.cls-41{fill:#2e17a8;}.cls-42{fill:#2f18a9;}.cls-43{fill:#2f18aa;}.cls-44{fill:#3018ab;}.cls-45{fill:#3018ac;}.cls-46{fill:#3119ad;}.cls-47{fill:#3119ae;}.cls-48{fill:#3219af;}.cls-49{fill:#321ab0;}.cls-50{fill:#331ab1;}.cls-51{fill:#8eaafe;}.cls-52{fill:url(#linear-gradient-2);}.cls-53{fill:url(#linear-gradient-3);}.cls-54{clip-path:url(#clip-path-2);}.cls-55{fill:url(#linear-gradient-4);}.cls-56{fill:url(#linear-gradient-5);}.cls-57{fill:url(#linear-gradient-6);}.cls-58{fill:url(#linear-gradient-7);}.cls-59{fill:url(#linear-gradient-8);}.cls-60{fill:url(#linear-gradient-9);}.cls-61{fill:url(#linear-gradient-10);}.cls-62{fill:url(#linear-gradient-11);}.cls-63{fill:url(#linear-gradient-12);}.cls-64{fill:url(#linear-gradient-13);}.cls-65{fill:url(#linear-gradient-14);}.cls-66{fill:url(#linear-gradient-15);}.cls-67{fill:url(#linear-gradient-16);}.cls-68{fill:url(#linear-gradient-17);}.cls-69{fill:url(#linear-gradient-18);}.cls-70{fill:url(#linear-gradient-19);}.cls-71{fill:url(#linear-gradient-20);}.cls-72{fill:url(#linear-gradient-21);}.cls-73{fill:url(#linear-gradient-22);}.cls-74{fill:url(#linear-gradient-23);}.cls-75{fill:url(#linear-gradient-24);}.cls-76{fill:url(#linear-gradient-25);}.cls-77{fill:url(#linear-gradient-26);}.cls-78{fill:url(#linear-gradient-27);}.cls-79{fill:url(#linear-gradient-28);}.cls-80{fill:url(#linear-gradient-29);}.cls-81{fill:url(#linear-gradient-30);}.cls-82{fill:url(#linear-gradient-31);}.cls-83{fill:url(#linear-gradient-32);}.cls-84{fill:url(#linear-gradient-33);}.cls-85{fill:url(#linear-gradient-34);}.cls-86{fill:url(#linear-gradient-35);}.cls-87{fill:url(#linear-gradient-36);}.cls-88{fill:url(#linear-gradient-37);}.cls-89{fill:url(#linear-gradient-38);}.cls-90{fill:url(#linear-gradient-39);}.cls-91{fill:url(#linear-gradient-40);}</style><linearGradient id="linear-gradient" x1="425.08" y1="281.86" x2="709" y2="409.94" gradientUnits="userSpaceOnUse"><stop offset="0" stop-color="#d1daf9"/><stop offset="1" stop-color="#8aa9fa"/></linearGradient><clipPath id="clip-path"><rect class="cls-1" x="160.36" y="114.45" width="282.66" height="414.06" rx="27.73"/></clipPath><linearGradient id="linear-gradient-2" x1="196.81" y1="58.87" x2="601.4" y2="345.98" gradientUnits="userSpaceOnUse"><stop offset="0" stop-color="#070256"/><stop offset="1" stop-color="#4222d0"/></linearGradient><linearGradient id="linear-gradient-3" x1="291.36" y1="497.2" x2="521.3" y2="660.37" gradientTransform="translate(445.12 -65.55) rotate(45)" xlink:href="#linear-gradient-2"/><clipPath id="clip-path-2"><rect class="cls-1" x="170.85" y="150.06" width="261.66" height="331.67"/></clipPath><linearGradient id="linear-gradient-4" x1="10932.93" y1="-1194.35" x2="11242.98" y2="-877.09" gradientTransform="translate(-10821.94 -515.48) rotate(10.21)" gradientUnits="userSpaceOnUse"><stop offset="0" stop-color="#fdcdcd"/><stop offset="1" stop-color="#ff8686"/></linearGradient><linearGradient id="linear-gradient-5" x1="11061.17" y1="-1070.68" x2="11056.75" y2="-1197.58" gradientTransform="translate(-10821.94 -515.48) rotate(10.21)" gradientUnits="userSpaceOnUse"><stop offset="0" stop-color="#fff"/><stop offset="1" stop-color="#d5dffa"/></linearGradient><linearGradient id="linear-gradient-6" x1="12345.39" y1="411.71" x2="12204.04" y2="270.36" gradientTransform="translate(-11920.9)" gradientUnits="userSpaceOnUse"><stop offset="0" stop-color="#a1c5ff"/><stop offset="1" stop-color="#2d4bdf"/></linearGradient><linearGradient id="linear-gradient-7" x1="12377.35" y1="520.25" x2="12198.76" y2="341.65" gradientTransform="translate(-11920.9)" xlink:href="#linear-gradient-5"/><linearGradient id="linear-gradient-8" x1="12370.59" y1="556.63" x2="12102.85" y2="288.89" gradientTransform="translate(-11920.9)" xlink:href="#linear-gradient-5"/><linearGradient id="linear-gradient-9" x1="12309.94" y1="237.45" x2="12176.11" y2="371.28" gradientTransform="translate(-11920.9)" xlink:href="#linear-gradient-5"/><linearGradient id="linear-gradient-10" x1="12219.87" y1="223.05" x2="12262.76" y2="379.57" gradientTransform="translate(-11920.9)" xlink:href="#linear-gradient-5"/><linearGradient id="linear-gradient-11" x1="12241.43" y1="251.22" x2="12377.07" y2="426.31" gradientTransform="translate(-11920.9)" gradientUnits="userSpaceOnUse"><stop offset="0" stop-color="#070256"/><stop offset="1" stop-color="#3a18ce"/></linearGradient><linearGradient id="linear-gradient-12" x1="12233.77" y1="257.15" x2="12369.4" y2="432.25" xlink:href="#linear-gradient-11"/><linearGradient id="linear-gradient-13" x1="12218.83" y1="394.78" x2="12311.69" y2="261.47" xlink:href="#linear-gradient-6"/><linearGradient id="linear-gradient-14" x1="12203.68" y1="384.23" x2="12296.53" y2="250.91" xlink:href="#linear-gradient-6"/><linearGradient id="linear-gradient-15" x1="12192.4" y1="344.25" x2="12261.37" y2="239.13" gradientTransform="translate(267.3 -11939.31) rotate(88.45)" xlink:href="#linear-gradient-6"/><linearGradient id="linear-gradient-16" x1="12213.13" y1="273.14" x2="12348.76" y2="448.24" xlink:href="#linear-gradient-11"/><linearGradient id="linear-gradient-17" x1="-6304.2" y1="-2455.84" x2="-6289.78" y2="-2493.8" gradientTransform="matrix(-0.95, -0.32, -0.32, 0.95, -6429.77, 513.22)" xlink:href="#linear-gradient-2"/><linearGradient id="linear-gradient-18" x1="12351.11" y1="330.89" x2="12183.36" y2="163.13" gradientTransform="translate(-11920.9)" xlink:href="#linear-gradient-4"/><linearGradient id="linear-gradient-19" x1="12211.18" y1="163.14" x2="12439.33" y2="396.6" gradientTransform="translate(-11920.9)" xlink:href="#linear-gradient-4"/><linearGradient id="linear-gradient-20" x1="12237.33" y1="290.54" x2="12269.83" y2="204.98" xlink:href="#linear-gradient-6"/><linearGradient id="linear-gradient-21" x1="12254.62" y1="297.12" x2="12287.12" y2="211.56" xlink:href="#linear-gradient-6"/><linearGradient id="linear-gradient-22" x1="-7026.34" y1="-2332.29" x2="-6977.39" y2="-2461.15" gradientTransform="matrix(-0.87, -0.3, -0.25, 0.75, -6386.64, -85.81)" xlink:href="#linear-gradient-2"/><linearGradient id="linear-gradient-23" x1="12210.55" y1="162.46" x2="12438.71" y2="395.92" gradientTransform="translate(-11920.9)" xlink:href="#linear-gradient-4"/><linearGradient id="linear-gradient-24" x1="-1658.72" y1="-2715.15" x2="-1640.35" y2="-2715.15" gradientTransform="matrix(-0.92, -0.4, -0.4, 0.92, -2370.34, 2136.58)" gradientUnits="userSpaceOnUse"><stop offset="0" stop-color="#fff"/><stop offset="1" stop-color="#aac0fa"/></linearGradient><linearGradient id="linear-gradient-25" x1="-4681.96" y1="313.77" x2="-4653.57" y2="313.77" gradientTransform="matrix(-1, 0, 0, 1, -4392.88, 0)" xlink:href="#linear-gradient-2"/><linearGradient id="linear-gradient-26" x1="10674.35" y1="-1510.2" x2="10984.42" y2="-1192.92" gradientTransform="translate(-10520.71 -666.64) rotate(12.89)" xlink:href="#linear-gradient-4"/><linearGradient id="linear-gradient-27" x1="10802.59" y1="-1386.52" x2="10798.17" y2="-1513.43" gradientTransform="translate(-10520.71 -666.64) rotate(12.89)" xlink:href="#linear-gradient-5"/><linearGradient id="linear-gradient-28" x1="-1864.5" y1="-2619.88" x2="-1604" y2="-2715.54" gradientTransform="matrix(-0.92, -0.4, -0.4, 0.92, -2370.34, 2136.58)" xlink:href="#linear-gradient-6"/><linearGradient id="linear-gradient-29" x1="251.04" y1="178.18" x2="242.06" y2="241.42" gradientTransform="matrix(1, 0, 0, 1, 0, 0)" xlink:href="#linear-gradient-5"/><linearGradient id="linear-gradient-30" x1="109.1" y1="425.02" x2="-23.48" y2="517.35" xlink:href="#linear-gradient"/><linearGradient id="linear-gradient-31" x1="-5962.52" y1="-5256.53" x2="-5925.7" y2="-5256.53" gradientTransform="translate(11371.48 1437.59) rotate(-36.34) scale(1.37)" gradientUnits="userSpaceOnUse"><stop offset="0" stop-color="#d5dffa"/><stop offset="1" stop-color="#fff"/></linearGradient><linearGradient id="linear-gradient-32" x1="-5962.52" y1="-5242.85" x2="-5925.7" y2="-5242.85" gradientTransform="translate(11371.48 1437.59) rotate(-36.34) scale(1.37)" gradientUnits="userSpaceOnUse"><stop offset="0" stop-color="#8aa9fa"/><stop offset="1" stop-color="#d1daf9"/></linearGradient><linearGradient id="linear-gradient-33" x1="-12677.13" y1="-10323.95" x2="-12640.31" y2="-10323.95" gradientTransform="matrix(-1.29, 0.48, -0.48, -1.29, -21104.55, -7036.37)" xlink:href="#linear-gradient-31"/><linearGradient id="linear-gradient-34" x1="-12677.13" y1="-10310.28" x2="-12640.31" y2="-10310.28" gradientTransform="matrix(-1.29, 0.48, -0.48, -1.29, -21104.55, -7036.37)" xlink:href="#linear-gradient-32"/><linearGradient id="linear-gradient-35" x1="-12916.7" y1="-14328.85" x2="-12879.88" y2="-14328.85" gradientTransform="translate(-14866.41 21890.94) rotate(76.42) scale(1.37)" xlink:href="#linear-gradient-31"/><linearGradient id="linear-gradient-36" x1="-12916.7" y1="-14315.17" x2="-12879.88" y2="-14315.17" gradientTransform="translate(-14866.41 21890.94) rotate(76.42) scale(1.37)" xlink:href="#linear-gradient-32"/><linearGradient id="linear-gradient-37" x1="-9333.56" y1="-8851.67" x2="-9296.74" y2="-8851.67" gradientTransform="translate(-17248.59 2659) rotate(127.9) scale(1.37)" xlink:href="#linear-gradient-31"/><linearGradient id="linear-gradient-38" x1="-9333.56" y1="-8837.99" x2="-9296.74" y2="-8837.99" gradientTransform="translate(-17248.59 2659) rotate(127.9) scale(1.37)" xlink:href="#linear-gradient-32"/><linearGradient id="linear-gradient-39" x1="-4196.76" y1="-2473.53" x2="-4159.94" y2="-2473.53" gradientTransform="translate(5724.66 -3591.44) rotate(-69.31) scale(1.37)" xlink:href="#linear-gradient-31"/><linearGradient id="linear-gradient-40" x1="-4196.76" y1="-2459.85" x2="-4159.94" y2="-2459.85" gradientTransform="translate(5724.66 -3591.44) rotate(-69.31) scale(1.37)" xlink:href="#linear-gradient-32"/></defs><rect class="cls-2" x="475.77" y="294.97" width="115.41" height="71.58" rx="7.26"/><path class="cls-3" d="M551.29,347.55H533.64a1.25,1.25,0,0,1-1.27-1.21,1.23,1.23,0,0,1,1.23-1.25h17.64a1.26,1.26,0,0,1,1.28,1.21A1.23,1.23,0,0,1,551.29,347.55Z"/><path class="cls-3" d="M569.2,337.18H533.64a1.25,1.25,0,0,1-1.27-1.21,1.24,1.24,0,0,1,1.23-1.26h35.56a1.26,1.26,0,0,1,1.27,1.22A1.23,1.23,0,0,1,569.2,337.18Z"/><path class="cls-3" d="M569.2,326.81H533.64a1.25,1.25,0,0,1-1.27-1.21,1.24,1.24,0,0,1,1.23-1.26h35.56a1.25,1.25,0,0,1,1.27,1.21A1.24,1.24,0,0,1,569.2,326.81Z"/><path class="cls-3" d="M569.2,316.44H533.64a1.26,1.26,0,0,1-1.27-1.21A1.24,1.24,0,0,1,533.6,314h35.56a1.25,1.25,0,0,1,1.27,1.21A1.24,1.24,0,0,1,569.2,316.44Z"/><path class="cls-3" d="M509.42,338.08l-12.3-12.29a7.44,7.44,0,1,1,10.52-10.52l1.78,1.78,1.78-1.78a7.44,7.44,0,1,1,10.52,10.52Z"/><g class="cls-4"><polygon class="cls-5" points="437.32 528.5 443.02 521.89 443.02 528.5 437.32 528.5"/><polygon class="cls-6" points="423.06 528.5 443.02 505.35 443.02 521.89 437.32 528.5 423.06 528.5"/><polygon class="cls-7" points="408.81 528.5 443.02 488.81 443.02 505.35 423.06 528.5 408.81 528.5"/><polygon class="cls-8" points="394.56 528.5 443.02 472.27 443.02 488.81 408.81 528.5 394.56 528.5"/><polygon class="cls-9" points="380.3 528.5 443.02 455.73 443.02 472.27 394.56 528.5 380.3 528.5"/><polygon class="cls-10" points="366.05 528.5 443.02 439.19 443.02 455.73 380.3 528.5 366.05 528.5"/><polygon class="cls-11" points="351.79 528.5 443.02 422.65 443.02 439.19 366.05 528.5 351.79 528.5"/><polygon class="cls-12" points="337.54 528.5 443.02 406.11 443.02 422.65 351.79 528.5 337.54 528.5"/><polygon class="cls-13" points="323.29 528.5 443.02 389.57 443.02 406.11 337.54 528.5 323.29 528.5"/><polygon class="cls-14" points="309.03 528.5 443.02 373.03 443.02 389.57 323.29 528.5 309.03 528.5"/><polygon class="cls-15" points="294.78 528.5 443.02 356.49 443.02 373.03 309.03 528.5 294.78 528.5"/><polygon class="cls-16" points="280.52 528.5 443.02 339.95 443.02 356.49 294.78 528.5 280.52 528.5"/><polygon class="cls-17" points="266.27 528.5 443.02 323.41 443.02 339.95 280.52 528.5 266.27 528.5"/><polygon class="cls-18" points="252.02 528.5 443.02 306.87 443.02 323.41 266.27 528.5 252.02 528.5"/><polygon class="cls-19" points="237.76 528.5 443.02 290.33 443.02 306.87 252.02 528.5 237.76 528.5"/><polygon class="cls-20" points="223.51 528.5 443.02 273.79 443.02 290.33 237.76 528.5 223.51 528.5"/><polygon class="cls-21" points="209.25 528.5 443.02 257.25 443.02 273.79 223.51 528.5 209.25 528.5"/><polygon class="cls-22" points="195 528.5 443.02 240.71 443.02 257.25 209.25 528.5 195 528.5"/><polygon class="cls-23" points="180.75 528.5 443.02 224.17 443.02 240.71 195 528.5 180.75 528.5"/><polygon class="cls-24" points="171.21 528.5 168.5 526.17 443.02 207.63 443.02 224.17 180.75 528.5 171.21 528.5"/><polygon class="cls-25" points="168.5 526.17 160.36 519.16 160.36 519.08 443.02 191.09 443.02 207.63 168.5 526.17"/><polygon class="cls-26" points="160.36 502.54 443.02 174.55 443.02 191.09 160.36 519.08 160.36 502.54"/><polygon class="cls-27" points="160.36 486 443.02 158.01 443.02 174.55 160.36 502.54 160.36 486"/><polygon class="cls-28" points="160.36 469.46 443.02 141.47 443.02 158.01 160.36 486 160.36 469.46"/><polygon class="cls-29" points="160.36 452.92 443.02 124.93 443.02 141.47 160.36 469.46 160.36 452.92"/><polygon class="cls-30" points="160.36 436.38 435.4 117.23 443.02 123.79 443.02 124.93 160.36 452.92 160.36 436.38"/><polygon class="cls-31" points="160.36 419.84 423.55 114.45 432.17 114.45 435.4 117.23 160.36 436.38 160.36 419.84"/><polygon class="cls-32" points="160.36 403.3 409.29 114.45 423.55 114.45 160.36 419.84 160.36 403.3"/><polygon class="cls-33" points="160.36 386.76 395.04 114.45 409.29 114.45 160.36 403.3 160.36 386.76"/><polygon class="cls-34" points="160.36 370.22 380.78 114.45 395.04 114.45 160.36 386.76 160.36 370.22"/><polygon class="cls-35" points="160.36 353.68 366.53 114.45 380.78 114.45 160.36 370.22 160.36 353.68"/><polygon class="cls-36" points="160.36 337.14 352.27 114.45 366.53 114.45 160.36 353.68 160.36 337.14"/><polygon class="cls-37" points="160.36 320.6 338.02 114.45 352.27 114.45 160.36 337.14 160.36 320.6"/><polygon class="cls-38" points="160.36 304.06 323.77 114.45 338.02 114.45 160.36 320.6 160.36 304.06"/><polygon class="cls-39" points="160.36 287.52 309.51 114.45 323.77 114.45 160.36 304.06 160.36 287.52"/><polygon class="cls-40" points="160.36 270.98 295.26 114.45 309.51 114.45 160.36 287.52 160.36 270.98"/><polygon class="cls-41" points="160.36 254.44 281.01 114.45 295.26 114.45 160.36 270.98 160.36 254.44"/><polygon class="cls-42" points="160.36 237.9 266.75 114.45 281.01 114.45 160.36 254.44 160.36 237.9"/><polygon class="cls-43" points="160.36 221.36 252.5 114.45 266.75 114.45 160.36 237.9 160.36 221.36"/><polygon class="cls-44" points="160.36 204.82 238.24 114.45 252.5 114.45 160.36 221.36 160.36 204.82"/><polygon class="cls-45" points="160.36 188.28 223.99 114.45 238.24 114.45 160.36 204.82 160.36 188.28"/><polygon class="cls-46" points="160.36 171.74 209.74 114.45 223.99 114.45 160.36 188.28 160.36 171.74"/><polygon class="cls-47" points="160.36 155.2 195.48 114.45 209.74 114.45 160.36 171.74 160.36 155.2"/><polygon class="cls-48" points="160.36 138.66 181.23 114.45 195.48 114.45 160.36 155.2 160.36 138.66"/><polygon class="cls-49" points="160.36 122.12 166.97 114.45 181.23 114.45 160.36 138.66 160.36 122.12"/><polygon class="cls-50" points="166.97 114.45 160.36 122.12 160.36 114.45 166.97 114.45"/></g><rect class="cls-51" x="170.91" y="150.75" width="261.56" height="330.75"/><path class="cls-52" d="M319.92,137.41H283.46a4.12,4.12,0,0,1-4.11-4.11h0a4.12,4.12,0,0,1,4.11-4.12h36.46A4.12,4.12,0,0,1,324,133.3h0A4.12,4.12,0,0,1,319.92,137.41Z"/><circle class="cls-53" cx="301.69" cy="504.53" r="10.78" transform="translate(-268.4 361.1) rotate(-45)"/><g class="cls-54"><path class="cls-55" d="M204.6,320.43c-.27-.16-.56-.35-.86-.56-2.48-1.69-6.09-4.54-8.73-1.7-2.13,2.28-.51,5.74.84,7.61a51.85,51.85,0,0,0,7.06,7.54l7.42-9.49C208.41,322.71,206.5,321.57,204.6,320.43Z"/><path class="cls-56" d="M314.25,272.31c-15.92.21-19.58,28.06-22.68,39.18-4.48,16-9.93,31-19.05,44.78-21.94-8.74-42.09-21.55-62.34-33.47l-10.47,13.31c.81.75,1.62,1.48,2.41,2.22,10,9.31,22.87,17.5,34.07,25.29a201.06,201.06,0,0,0,21.5,13.21c6.49,3.4,16.46,7.4,24,6.19a17.28,17.28,0,0,0,8.15-4.24c8.06-6.81,15.5-14.27,21.38-23.08a108.35,108.35,0,0,0,16.25-40.78C329.16,305.66,330.86,272.1,314.25,272.31Z"/><path class="cls-57" d="M360.36,256.25c-1.41,1.49-4.52,4.86-16.53,5.86-8,.66-16.74.46-18.6-1.33C266.3,285.24,299,391.86,299,391.86l83.92,3.88S434.75,264.63,360.36,256.25Z"/><path class="cls-58" d="M400.47,310.42a2.28,2.28,0,0,0,0-.26C400,284,391,260.86,362.63,256.55c-3.24,1.82-10.21,6.29-20.46,15.84C330.42,283.34,319,307.73,315,316.81c-.38,2.88-.71,5.86-1,9-5.14,55.12-12,176.7-14.41,219.87h96.65S403.72,358.39,400.47,310.42Z"/><path class="cls-59" d="M316,285.66c1.4-7.88,5-20,6.1-23.45-17.74,8.74-26.4,25.49-30,44.12h0q-.49,2.55-.87,5.15c-7.39,48.64-19.35,234.17-19.35,234.17h27.71C302,502.48,308.85,380.9,314,325.78c.27-3,.59-5.82.95-8.56C314.82,311.3,314.6,293.35,316,285.66Z"/><path class="cls-60" d="M314.83,318s12.75-32,27.34-45.64,20.7-15.81,20.7-15.81l8.15.89L358.42,280l-12.6,2.65-.66,9.29Z"/><path class="cls-61" d="M322.06,262.22s-4.43,14.15-6.08,23.44-1,32.49-1,32.49L305,290.3l4-7.63L305,278l9-12.27Z"/><path class="cls-62" d="M358.58,289.61c.49-.82,12-20.37,6-32.39-2.45-4.92-7.46-7.84-14.9-8.66-12.56-1.38-23.92,4.56-32.84,17.18a74.18,74.18,0,0,0-9.72,19.52l1.87.55a73.89,73.89,0,0,1,9.47-19c8.6-12.15,19-17.64,31-16.32,6.74.74,11.24,3.3,13.38,7.59,5.5,11.06-5.84,30.33-5.95,30.52Z"/><path class="cls-63" d="M354,321.54l1.25-1.5a40.55,40.55,0,0,1-8.53-10.52c5-1,10.11-3,13.5-7,2.76-3.27,3.55-7.09,2.17-10.47a8.71,8.71,0,0,0-7.26-5.44c-3.84-.36-7.63,1.88-10.4,6.16-2.89,4.47-3.19,9.67-.92,15.23a53.38,53.38,0,0,1-12.62,0l-.27,1.93a53.58,53.58,0,0,0,13.75-.08c.43.84.91,1.68,1.45,2.54A42.94,42.94,0,0,0,354,321.54Zm.27-33c.23,0,.45,0,.68,0a6.8,6.8,0,0,1,5.64,4.24c1.1,2.69.42,5.77-1.86,8.47-3.14,3.72-8.08,5.56-12.9,6.43-1.87-4.31-2.46-9.23.54-13.86C348.55,290.38,351.34,288.51,354.23,288.5Z"/><path class="cls-64" d="M354.59,322.15a1.34,1.34,0,0,0,1-.48,1.36,1.36,0,0,0-.15-1.92,38.63,38.63,0,0,1-5.66-6.07,1.37,1.37,0,1,0-2.17,1.66,41.71,41.71,0,0,0,6.06,6.49A1.34,1.34,0,0,0,354.59,322.15Z"/><path class="cls-65" d="M337.45,310.73l1.69,0a1.37,1.37,0,0,0-.05-2.73h0a48.76,48.76,0,0,1-7.86-.33,1.36,1.36,0,0,0-.36,2.7A48.88,48.88,0,0,0,337.45,310.73Z"/><circle class="cls-66" cx="306.26" cy="291.26" r="5.56" transform="translate(6.83 589.55) rotate(-88.45)"/><path class="cls-67" d="M306.29,297.8a6.54,6.54,0,1,0-6.56-6.5A6.55,6.55,0,0,0,306.29,297.8Zm-.05-11.12a4.59,4.59,0,1,1-4.56,4.61A4.59,4.59,0,0,1,306.24,286.68Z"/><path class="cls-68" d="M329.1,190.46s-7.83,1.31-9.24,8.78,2.45,14.46,11.31,11.8S340.64,193.26,329.1,190.46Z"/><path class="cls-69" d="M324.79,261l.44-.19c1.86,1.79,10.64,2,18.6,1.33,11.83-1,15-4.26,16.46-5.79A61.93,61.93,0,0,1,356,243c-2-10,1.47-20.36,1.47-20.36l-21.35,3.09a73.21,73.21,0,0,1-2.48,18.93A38.1,38.1,0,0,1,324.79,261Z"/><path class="cls-70" d="M353.44,185.22c18.59,4.21,22.91,25.71,13.78,36.27-8.41,9.72-13.91,4.17-18.63,12.08-3.64,6.11-16.85,13.18-23.43,12.08s-9.71-16.59-4.5-36.69S343.2,182.91,353.44,185.22Z"/><polygon class="cls-71" points="326.32 257.14 322.05 262.26 324.6 268.08 332.23 262.44 326.32 257.14"/><polygon class="cls-72" points="358.79 250.5 363.07 258.46 338.32 270.4 332.23 262.44 358.79 250.5"/><path class="cls-73" d="M359.42,185.84c16.73,7.53,16.11,28.37,10.61,36.81a39.36,39.36,0,0,1-14.46,12.66s1.33-8.51-3.49-12.85-2.59-17-9.7-20.8-14.08,2.83-20.1-4.15,4.66-23.7,18.9-19.3S355.32,184,359.42,185.84Z"/><path class="cls-74" d="M351,221.7s7.27-2.61,5,3.42-8.7,4.89-8.7,4.89Z"/><polygon class="cls-75" points="217.65 308.49 232.48 304 228.96 295.62 214.14 300.11 217.65 308.49"/><path class="cls-76" d="M262.69,328.82a2,2,0,0,1-1.36-.54,2,2,0,0,1-.1-2.82l24.39-26.1a2,2,0,0,1,2.82-.09,2,2,0,0,1,.1,2.81l-24.4,26.11A2,2,0,0,1,262.69,328.82Z"/><path class="cls-77" d="M272.6,318.16l-.84-.6c-2.39-1.8-5.86-4.82-8.64-2.11-2.23,2.18-.77,5.72.49,7.65a51,51,0,0,0,6.7,7.85l7.85-9.12C276.3,320.61,274.44,319.39,272.6,318.16Z"/><path class="cls-78" d="M384.38,275.22c-15.91-.54-20.87,27.11-24.49,38.07-5.22,15.8-11.37,30.51-21.11,43.84-21.52-9.76-41-23.49-60.72-36.35L267,333.59l2.3,2.33c9.57,9.77,22,18.55,32.84,26.86A202,202,0,0,0,323,377c6.33,3.7,16.1,8.17,23.71,7.31a17.15,17.15,0,0,0,8.33-3.85c8.37-6.43,16.15-13.53,22.43-22.06a108.33,108.33,0,0,0,18.15-40C397.72,309.23,401,275.78,384.38,275.22Z"/><polygon class="cls-79" points="226.53 384.73 283.85 367.38 252.49 292.59 195.17 309.95 226.53 384.73"/></g><path class="cls-80" d="M276.65,183.13H217a9.45,9.45,0,0,0-9.42,9.42v30.93A9.45,9.45,0,0,0,217,232.9h38.73L264,244.05V232.9h12.61a9.45,9.45,0,0,0,9.42-9.42V192.55A9.45,9.45,0,0,0,276.65,183.13Z"/><circle class="cls-51" cx="232.55" cy="207.63" r="4.54" transform="translate(-9.65 403.91) rotate(-80.78)"/><circle class="cls-51" cx="245.77" cy="207.63" r="4.54" transform="matrix(0.16, -0.99, 0.99, 0.16, 1.45, 416.96)"/><circle class="cls-51" cx="258.98" cy="207.63" r="4.54" transform="translate(12.55 430.01) rotate(-80.78)"/><rect class="cls-81" x="8.81" y="418.89" width="115.41" height="71.58" rx="7.26"/><path class="cls-3" d="M84.33,471.46H66.68a1.26,1.26,0,0,1-1.27-1.2A1.24,1.24,0,0,1,66.64,469H84.29a1.25,1.25,0,0,1,1.27,1.21A1.23,1.23,0,0,1,84.33,471.46Z"/><path class="cls-3" d="M102.24,461.09H66.68a1.26,1.26,0,0,1-1.27-1.21,1.23,1.23,0,0,1,1.23-1.25H102.2a1.26,1.26,0,0,1,1.28,1.21A1.24,1.24,0,0,1,102.24,461.09Z"/><path class="cls-3" d="M102.24,450.72H66.68a1.26,1.26,0,0,1-1.27-1.21,1.23,1.23,0,0,1,1.23-1.25H102.2a1.26,1.26,0,0,1,1.28,1.21A1.24,1.24,0,0,1,102.24,450.72Z"/><path class="cls-3" d="M102.24,440.35H66.68a1.26,1.26,0,0,1-1.27-1.21,1.23,1.23,0,0,1,1.23-1.25H102.2a1.26,1.26,0,0,1,1.28,1.21A1.24,1.24,0,0,1,102.24,440.35Z"/><polygon class="cls-3" points="52.7 445.3 45.33 445.3 45.33 437.92 35.12 437.92 35.12 445.3 27.74 445.3 27.74 455.51 35.12 455.51 35.12 462.89 45.33 462.89 45.33 455.51 52.7 455.51 52.7 445.3"/><path class="cls-82" d="M560.62,485.51h0a15.13,15.13,0,0,1-21.08-3.21l-26.61-36.17a15.13,15.13,0,0,1,3.21-21.08h0a15.12,15.12,0,0,1,21.08,3.21l26.61,36.17A15.12,15.12,0,0,1,560.62,485.51Z"/><path class="cls-83" d="M526.24,464.22l13.3,18.08a15.13,15.13,0,0,0,21.08,3.21h0a15.12,15.12,0,0,0,3.21-21.08l-13.3-18.08Z"/><path class="cls-84" d="M78.12,180.81h0a15.12,15.12,0,0,1,19.38,8.9l15.6,42.1a15.12,15.12,0,0,1-8.9,19.38h0a15.12,15.12,0,0,1-19.38-8.9l-15.6-42.1A15.13,15.13,0,0,1,78.12,180.81Z"/><path class="cls-85" d="M105.3,210.76l-7.8-21a15.12,15.12,0,0,0-19.38-8.9h0a15.13,15.13,0,0,0-8.9,19.38L77,221.24Z"/><path class="cls-86" d="M51.35,93.64h0a15.12,15.12,0,0,1,11.11-18.2L106.1,64.9A15.12,15.12,0,0,1,124.3,76h0a15.12,15.12,0,0,1-11.11,18.2L69.54,104.75A15.11,15.11,0,0,1,51.35,93.64Z"/><path class="cls-87" d="M84.28,70.17,62.46,75.44a15.12,15.12,0,0,0-11.11,18.2h0a15.11,15.11,0,0,0,18.19,11.11l21.82-5.27Z"/><path class="cls-88" d="M147.91,21h0a15.13,15.13,0,0,1,21.16-2.63L204.49,46a15.12,15.12,0,0,1,2.64,21.16h0A15.12,15.12,0,0,1,186,69.76L150.54,42.17A15.12,15.12,0,0,1,147.91,21Z"/><path class="cls-89" d="M186.78,32.17,169.07,18.38A15.13,15.13,0,0,0,147.91,21h0a15.12,15.12,0,0,0,2.63,21.16L168.25,56Z"/><path class="cls-90" d="M563.39,575h0A15.12,15.12,0,0,1,544,583.82L502,568a15.12,15.12,0,0,1-8.77-19.43h0a15.12,15.12,0,0,1,19.43-8.78l42,15.87A15.12,15.12,0,0,1,563.39,575Z"/><path class="cls-91" d="M523,575.88l21,7.94A15.12,15.12,0,0,0,563.39,575h0a15.12,15.12,0,0,0-8.78-19.43l-21-7.94Z"/></svg>