<svg id="Layer_1" data-name="Layer 1" xmlns="http://www.w3.org/2000/svg" viewBox="0 0 1115 280"><defs><style>.cls-1{fill:#427ce7;}.cls-2,.cls-3{fill:#00c964;}.cls-2{stroke:#00c964;stroke-miterlimit:10;}</style></defs><path class="cls-1" d="M468.81,199.34H407.86V172.77h60.95a6.66,6.66,0,0,0,6.64-6.64c0-1.89-.65-3.13-1.95-3.71a11.35,11.35,0,0,0-4.69-.88H441.07a32.1,32.1,0,0,1-13-2.64,33.39,33.39,0,0,1-10.55-7.18,33.82,33.82,0,0,1-7.09-10.6,34,34,0,0,1,0-26,33,33,0,0,1,17.64-17.63,32.57,32.57,0,0,1,13-2.59h54v26.57h-54a6.68,6.68,0,0,0-6.65,6.64,6.7,6.7,0,0,0,2,4.84,6.32,6.32,0,0,0,4.69,2h27.74a36.28,36.28,0,0,1,12.89,2.29,32.78,32.78,0,0,1,10.55,6.4A30.11,30.11,0,0,1,502,166.13a31.79,31.79,0,0,1-2.64,12.94,34.41,34.41,0,0,1-7.13,10.55,32.89,32.89,0,0,1-23.44,9.72Z"/><path class="cls-1" d="M568.64,199.34a45.45,45.45,0,0,1-18.17-3.66,47.22,47.22,0,0,1-25-25,45.42,45.42,0,0,1-3.66-18.17V121.49h-13V94.92h13V53.11h26.57V94.92h40.44v26.57H548.42v31.06a20,20,0,0,0,5.86,14.26,20.38,20.38,0,0,0,6.45,4.35,19.53,19.53,0,0,0,7.91,1.61h20.22v26.57Z"/><path class="cls-1" d="M630.47,199.34H603.81V94.72h6.44L619,107.13a47.14,47.14,0,0,1,31.65-12.21h23.54v26.57H650.69a20.24,20.24,0,0,0-14.36,5.86,20.35,20.35,0,0,0-5.86,14.36Z"/><path class="cls-1" d="M726.3,173.75a14.37,14.37,0,0,0,3.13.63q1.56.15,3.12.15a26.44,26.44,0,0,0,7.52-1.07,27.4,27.4,0,0,0,6.79-3.08,25.36,25.36,0,0,0,5.67-4.88,25.69,25.69,0,0,0,4.05-6.4l19.54,19.63a52.85,52.85,0,0,1-8.55,9.48,54.24,54.24,0,0,1-10.45,7.13,52.62,52.62,0,0,1-11.82,4.44,53.6,53.6,0,0,1-12.75,1.52,52.82,52.82,0,0,1-37.75-15.54,53.59,53.59,0,0,1-11.48-17.43,57.38,57.38,0,0,1-4.2-22.22,59.31,59.31,0,0,1,4.2-22.67,51.29,51.29,0,0,1,28.47-28.72,54,54,0,0,1,20.76-4,52.71,52.71,0,0,1,12.8,1.56A53.65,53.65,0,0,1,767.72,104a52.83,52.83,0,0,1,8.59,9.52Zm13.68-55a15.63,15.63,0,0,0-3.67-.87,35,35,0,0,0-3.76-.2,26.7,26.7,0,0,0-10.3,2,24.4,24.4,0,0,0-8.4,5.72,26.89,26.89,0,0,0-5.62,8.93,32,32,0,0,0-2.05,11.78c0,1,.05,2.08.14,3.32s.26,2.49.49,3.76.51,2.49.83,3.66a14.12,14.12,0,0,0,1.27,3.13Z"/><path class="cls-1" d="M890.21,199.34h-6.45L873.41,185a85.1,85.1,0,0,1-8.06,6.4,59.39,59.39,0,0,1-8.94,5.18,55.32,55.32,0,0,1-9.62,3.47,40.34,40.34,0,0,1-10,1.27A57.58,57.58,0,0,1,816,197.58a49.25,49.25,0,0,1-17-10.79,50.55,50.55,0,0,1-11.47-17.34,61.16,61.16,0,0,1-4.2-23.34,58.36,58.36,0,0,1,4.2-22.42A53.42,53.42,0,0,1,799,106.15a52,52,0,0,1,17-11.38,53.43,53.43,0,0,1,20.76-4A40.44,40.44,0,0,1,846.84,92a52.36,52.36,0,0,1,9.67,3.52,59.07,59.07,0,0,1,8.94,5.27,74.31,74.31,0,0,1,8,6.55l10.35-12.41h6.45Zm-26.86-53.23a27.71,27.71,0,0,0-2.1-10.6,30.5,30.5,0,0,0-5.72-9.09,28.54,28.54,0,0,0-8.45-6.35,23,23,0,0,0-10.3-2.39,28.49,28.49,0,0,0-10.31,1.86,23.41,23.41,0,0,0-8.4,5.47,25.56,25.56,0,0,0-5.61,8.93,36.95,36.95,0,0,0,0,24.33,25.38,25.38,0,0,0,5.61,8.93,23.41,23.41,0,0,0,8.4,5.47,28.49,28.49,0,0,0,10.31,1.86,23,23,0,0,0,10.3-2.39,28.38,28.38,0,0,0,8.45-6.35,30.5,30.5,0,0,0,5.72-9.09A27.67,27.67,0,0,0,863.35,146.11Z"/><path class="cls-1" d="M1043.57,199.34H1017V132.92a13.33,13.33,0,0,0-1-5.18,13.34,13.34,0,0,0-7.18-7.18,13.33,13.33,0,0,0-5.18-1,12.84,12.84,0,0,0-9.33,3.9,13.74,13.74,0,0,0-2.83,4.3,13.16,13.16,0,0,0-1,5.18v66.42H963.77V132.92a13.36,13.36,0,0,0-3.91-9.48,13.54,13.54,0,0,0-4.3-2.88,13.33,13.33,0,0,0-5.18-1,13,13,0,0,0-5.13,1,13.22,13.22,0,0,0-4.2,2.88,13.91,13.91,0,0,0-2.83,4.3,13.33,13.33,0,0,0-1,5.18v66.42H910.53V94.72H917l7.22,8a43.11,43.11,0,0,1,12.26-7.27,38.16,38.16,0,0,1,13.92-2.59,38.94,38.94,0,0,1,14.31,2.73A29,29,0,0,1,977,105.08a27.25,27.25,0,0,1,5.57-5.67,31.41,31.41,0,0,1,6.59-3.81,33.39,33.39,0,0,1,7.18-2.1,43.81,43.81,0,0,1,7.33-.63A39.13,39.13,0,0,1,1019.2,96a40.47,40.47,0,0,1,12.7,8.55,40.05,40.05,0,0,1,8.54,12.75,39.28,39.28,0,0,1,3.13,15.63Z"/><path class="cls-2" d="M75.93,77.08V189.41H71.81V72.79h8.73l41.67,94.39,41.51-94.39h8.73V189.41h-4.12V75.76h-1.48L125,171h-5.6l-42-94.06Z"/><polygon class="cls-2" points="182.11 199.07 158.68 199.07 158.68 118.37 131.32 180.62 126.85 180.62 122.13 180.64 117.59 180.62 113.15 180.62 85.58 118.9 85.58 199.07 62.15 199.07 62.15 63.13 86.83 63.13 122.19 143.23 157.42 63.13 182.11 63.13 182.11 199.07"/><path class="cls-1" d="M296.46,101.07a65.47,65.47,0,0,1,11.65-9.32,59.34,59.34,0,0,0-61.52-25.5l3,14.54a44.5,44.5,0,0,1,46.88,20.28Z"/><path class="cls-1" d="M321.62,85.33a64.63,64.63,0,0,1,15.29-3.18,89,89,0,0,0-96.29-45l3,14.53a74.21,74.21,0,0,1,78,33.62Z"/><path class="cls-3" d="M395,199.08h-6l-9.66-13.41a81.18,81.18,0,0,1-7.52,6,56.84,56.84,0,0,1-8.34,4.83,50.21,50.21,0,0,1-9,3.23,37.4,37.4,0,0,1-9.35,1.19,49.21,49.21,0,0,1-35.23-14.63A50.7,50.7,0,0,1,299.22,170a55.75,55.75,0,0,1,0-41.07,51.11,51.11,0,0,1,10.72-16.41,49.26,49.26,0,0,1,15.86-10.85,48.32,48.32,0,0,1,19.37-3.92,43.42,43.42,0,0,1,6.79.55A35.09,35.09,0,0,1,358.8,100a28.3,28.3,0,0,1,6.25,3.24,19.18,19.18,0,0,1,4.92,4.92V62.6H395ZM370,149.39a26,26,0,0,0-2-9.89,28.66,28.66,0,0,0-5.33-8.48,26.59,26.59,0,0,0-7.89-5.93,21.53,21.53,0,0,0-9.62-2.23,25.56,25.56,0,0,0-9.62,1.82,22.72,22.72,0,0,0-7.84,5.25,24.58,24.58,0,0,0-5.24,8.34,30.62,30.62,0,0,0-1.91,11.12,27.77,27.77,0,0,0,7.15,18.69,24.49,24.49,0,0,0,7.84,5.74,22.54,22.54,0,0,0,9.62,2.1,21.4,21.4,0,0,0,9.62-2.23,26.59,26.59,0,0,0,7.89-5.93,28.66,28.66,0,0,0,5.33-8.48A26,26,0,0,0,370,149.39Z"/><path class="cls-3" d="M239.38,174.88a14.14,14.14,0,0,0,3,.6c1,.09,2,.14,2.95.14a24.74,24.74,0,0,0,7.11-1,25.46,25.46,0,0,0,6.42-2.9,23.76,23.76,0,0,0,5.35-4.62A24.12,24.12,0,0,0,268,161l18.47,18.56a49.9,49.9,0,0,1-8.08,9,51.2,51.2,0,0,1-9.88,6.74,49.94,49.94,0,0,1-11.17,4.2,50.88,50.88,0,0,1-12,1.43,50,50,0,0,1-35.69-14.68,50.7,50.7,0,0,1-10.84-16.48,54.2,54.2,0,0,1-4-21,55.93,55.93,0,0,1,4-21.42,48.35,48.35,0,0,1,26.91-27.15,51,51,0,0,1,19.62-3.78,49.5,49.5,0,0,1,12.1,1.48,50.54,50.54,0,0,1,21.14,11,50.31,50.31,0,0,1,8.13,9Zm12.93-52a14.49,14.49,0,0,0-3.46-.83,31.49,31.49,0,0,0-3.56-.19,25.05,25.05,0,0,0-9.74,1.9,23,23,0,0,0-7.94,5.4,25.32,25.32,0,0,0-5.31,8.45,30.27,30.27,0,0,0-1.94,11.12c0,.92,0,2,.14,3.14a34.36,34.36,0,0,0,.46,3.56c.22,1.2.48,2.35.79,3.46a12.13,12.13,0,0,0,1.2,3Z"/></svg>