<svg id="Layer_1" data-name="Layer 1" xmlns="http://www.w3.org/2000/svg" xmlns:xlink="http://www.w3.org/1999/xlink" viewBox="0 0 600 600"><defs><style>.cls-1{fill:url(#linear-gradient);}.cls-2{fill:url(#linear-gradient-2);}.cls-3{fill:url(#linear-gradient-3);}.cls-4{fill:url(#linear-gradient-4);}.cls-5{fill:url(#linear-gradient-5);}.cls-6{fill:url(#linear-gradient-6);}.cls-7{fill:url(#linear-gradient-7);}.cls-8{fill:#fff;}</style><linearGradient id="linear-gradient" x1="275.64" y1="28.91" x2="389.82" y2="401.77" gradientUnits="userSpaceOnUse"><stop offset="0" stop-color="#fff"/><stop offset="1" stop-color="#b9cbfa"/></linearGradient><linearGradient id="linear-gradient-2" x1="316.56" y1="182.87" x2="430.73" y2="555.73" xlink:href="#linear-gradient"/><linearGradient id="linear-gradient-3" x1="778.14" y1="541.49" x2="337.31" y2="409.82" xlink:href="#linear-gradient"/><linearGradient id="linear-gradient-4" x1="180.94" y1="243.63" x2="297.58" y2="624.53" xlink:href="#linear-gradient"/><linearGradient id="linear-gradient-5" x1="666.16" y1="715.67" x2="443.21" y2="551.82" xlink:href="#linear-gradient"/><linearGradient id="linear-gradient-6" x1="727.82" y1="608.57" x2="504.86" y2="444.71" xlink:href="#linear-gradient"/><linearGradient id="linear-gradient-7" x1="169.62" y1="111.14" x2="774.41" y2="705.17" gradientUnits="userSpaceOnUse"><stop offset="0" stop-color="#a1c5ff"/><stop offset="1" stop-color="#2d4bdf"/></linearGradient></defs><path class="cls-1" d="M496.22,391.13H179.57c-10.59,0-17.84-8.62-16.15-19.21l27.23-170.46c1.69-10.59,11.69-19.21,22.28-19.21H529.59c10.59,0,17.83,8.62,16.14,19.21L518.51,371.92C516.81,382.51,506.82,391.13,496.22,391.13ZM211.22,193a10.36,10.36,0,0,0-9.84,8.48L174.16,371.92a7.05,7.05,0,0,0,7.12,8.48H497.94a10.35,10.35,0,0,0,9.83-8.48L535,201.46a7.06,7.06,0,0,0-7.13-8.48Z"/><path class="cls-2" d="M490,391.13H173.34c-10.59,0-17.83-8.62-16.14-19.21l27.22-170.46c1.69-10.59,11.69-19.21,22.29-19.21H523.36c10.59,0,17.84,8.62,16.14,19.21L512.28,371.92C510.59,382.51,500.59,391.13,490,391.13ZM205,193a10.34,10.34,0,0,0-9.83,8.48L167.93,371.92a7.06,7.06,0,0,0,7.13,8.48H491.71a10.36,10.36,0,0,0,9.84-8.48l27.22-170.46a7.05,7.05,0,0,0-7.12-8.48Z"/><rect class="cls-3" x="156.86" y="400.15" width="355.08" height="17.6" rx="3.42"/><rect class="cls-4" x="54.02" y="400.15" width="355.08" height="17.6" rx="3.42"/><rect class="cls-5" x="216.32" y="391.13" width="28.77" height="9.02" rx="1.75"/><rect class="cls-6" x="423.7" y="391.13" width="28.77" height="9.02" rx="1.75"/><path class="cls-7" d="M490.86,385.77H174.2c-7.65,0-12.86-6.2-11.63-13.85l27.22-170.46c1.22-7.65,8.41-13.85,16.06-13.85H522.5c7.65,0,12.86,6.2,11.64,13.85L506.91,371.92C505.69,379.57,498.5,385.77,490.86,385.77Z"/><path class="cls-8" d="M246.44,209.62H217.8a4.87,4.87,0,0,0-4.67,4.09l-4,28.65a3.48,3.48,0,0,0,3.52,4.09H241.3a4.86,4.86,0,0,0,4.66-4.09l4-28.65a3.48,3.48,0,0,0-3.52-4.09m-.57,4.09-4,28.65H213.22l4-28.65h28.65M224,238.26l-7-8.18,3.29-2.91,4.56,5.3L240.2,219l2.48,2.91"/><polygon class="cls-8" points="401.42 226.24 260.83 226.24 261.91 219.39 402.5 219.39 401.42 226.24"/><polygon class="cls-8" points="353.22 236.68 259.2 236.68 260.13 230.76 354.15 230.76 353.22 236.68"/><path class="cls-8" d="M237.75,262.91H209.1a4.86,4.86,0,0,0-4.66,4.09l-4,28.64a3.47,3.47,0,0,0,3.52,4.09H232.6a4.87,4.87,0,0,0,4.67-4.09l4-28.64a3.48,3.48,0,0,0-3.52-4.09m-.57,4.09-4,28.64H204.53l4-28.64h28.65m-21.85,24.55-7-8.18,3.29-2.91,4.56,5.3,15.37-13.48,2.48,2.9"/><polygon class="cls-8" points="392.73 279.53 252.14 279.53 253.22 272.68 393.81 272.68 392.73 279.53"/><polygon class="cls-8" points="344.53 289.96 250.5 289.96 251.43 284.04 345.46 284.04 344.53 289.96"/><path class="cls-8" d="M229.43,316.19H200.79a4.86,4.86,0,0,0-4.66,4.1l-4,28.64a3.47,3.47,0,0,0,3.52,4.09h28.64a4.85,4.85,0,0,0,4.66-4.09l4-28.64a3.48,3.48,0,0,0-3.52-4.1m-.57,4.1-4,28.64H196.22l4-28.64h28.64M207,344.84l-7-8.19,3.29-2.9,4.56,5.3,15.36-13.48,2.48,2.9"/><polygon class="cls-8" points="384.42 332.82 243.83 332.82 244.91 325.97 385.49 325.97 384.42 332.82"/><polygon class="cls-8" points="336.21 343.25 242.19 343.25 243.12 337.33 337.14 337.33 336.21 343.25"/></svg>